<?xml version="1.0" standalone="no"?>
<!DOCTYPE svg PUBLIC "-//W3C//DTD SVG 20010904//EN"
 "http://www.w3.org/TR/2001/REC-SVG-20010904/DTD/svg10.dtd">
<svg version="1.0" xmlns="http://www.w3.org/2000/svg"
 width="259.000000pt" height="195.000000pt" viewBox="0 0 259.000000 195.000000"
 preserveAspectRatio="xMidYMid meet">

<g transform="translate(0.000000,195.000000) scale(0.100000,-0.100000)"
fill="#000000" stroke="none">
<path d="M1302 1743 c-12 -2 -38 -20 -58 -38 -31 -29 -36 -40 -32 -67 5 -30
-2 -41 -79 -123 -46 -49 -100 -118 -119 -153 -20 -35 -72 -101 -116 -148 -51
-55 -88 -105 -104 -141 -29 -64 -91 -147 -159 -213 -58 -56 -72 -83 -103 -190
-34 -123 -34 -131 8 -145 19 -6 36 -19 38 -28 5 -25 39 -21 49 6 6 17 9 10 13
-33 6 -67 30 -79 56 -29 12 24 15 49 11 95 -6 76 1 114 19 114 14 0 17 -14 14
-61 -3 -47 57 -77 62 -30 1 9 2 25 3 36 1 11 3 26 4 33 0 7 6 10 11 7 6 -3 10
-42 10 -85 0 -87 12 -126 43 -136 15 -5 26 0 40 17 16 20 18 34 13 89 -4 36
-12 79 -18 97 -10 28 -9 35 7 53 18 20 20 20 32 4 7 -10 13 -39 13 -65 0 -58
24 -85 47 -54 8 12 12 31 9 48 -7 36 -2 34 23 -8 23 -39 54 -46 71 -16 5 11
10 44 10 74 0 81 31 101 216 142 65 15 212 58 327 96 114 39 233 73 265 76 31
3 73 14 93 25 53 30 86 95 61 124 -5 5 -19 38 -32 73 -64 174 -299 429 -484
523 -53 28 -73 32 -151 34 -49 1 -100 0 -113 -3z m254 -51 c175 -89 392 -319
465 -492 l28 -65 -59 -12 c-33 -7 -72 -20 -86 -30 -26 -17 -28 -17 -38 1 -99
170 -250 344 -349 404 -30 18 -96 48 -146 66 -50 17 -103 42 -118 53 -27 20
-27 22 -13 49 26 49 72 66 170 61 71 -3 95 -9 146 -35z m-157 -167 c66 -22
168 -89 245 -164 66 -64 231 -304 223 -325 -3 -8 0 -22 8 -33 13 -17 10 -19
-38 -29 -29 -7 -126 -37 -215 -69 -90 -31 -222 -70 -293 -86 -199 -44 -223
-61 -234 -162 -8 -76 -20 -82 -48 -24 -26 56 -52 44 -60 -28 -3 -34 -4 -31 -5
16 -1 30 -8 63 -15 73 -18 25 -56 17 -80 -17 -20 -26 -20 -28 -4 -75 22 -61
23 -162 2 -162 -23 0 -34 40 -33 112 2 76 -7 108 -31 108 -26 0 -39 -19 -44
-65 l-4 -40 -1 44 c-2 45 -24 81 -48 81 -30 0 -45 -46 -43 -127 1 -44 -3 -89
-9 -99 -9 -15 -11 -7 -12 44 0 56 -2 62 -21 62 -12 0 -23 -8 -26 -20 -6 -24
-19 -26 -27 -5 -3 9 -18 15 -36 15 -31 0 -38 8 -20 26 6 6 17 44 26 85 19 93
59 164 144 253 37 39 78 91 90 116 38 76 97 156 138 189 22 17 56 56 77 88 21
32 48 72 59 89 12 18 54 70 95 117 l75 85 55 -27 c31 -16 80 -36 110 -46z
m668 -441 c5 -15 -46 -76 -58 -68 -5 3 -9 1 -9 -5 0 -19 -60 -24 -85 -7 -43
28 -29 56 42 82 43 16 105 14 110 -2z"/>
<path d="M1228 1474 c-39 -21 -35 -28 5 -8 37 19 44 24 31 24 -5 -1 -21 -8
-36 -16z"/>
<path d="M1280 1467 c-73 -30 -88 -40 -93 -57 -7 -29 27 -52 83 -58 39 -4 55
-1 70 13 48 44 -1 127 -60 102z"/>
<path d="M1386 1456 c10 -25 53 -47 104 -53 69 -8 65 12 -5 32 -30 9 -57 21
-60 26 -10 15 -45 11 -39 -5z m93 -33 l36 -12 -35 6 c-38 6 -70 23 -70 37 0 4
7 2 16 -5 9 -8 33 -19 53 -26z"/>
<path d="M1141 1402 c-5 -9 -7 -29 -4 -44 4 -20 1 -30 -11 -34 -9 -4 -16 -17
-15 -33 0 -15 3 -20 6 -11 3 8 13 21 22 28 10 8 16 29 17 62 1 55 -1 59 -15
32z"/>
<path d="M1073 1360 c-30 -12 -29 -28 3 -36 29 -8 49 7 41 30 -7 18 -12 19
-44 6z"/>
<path d="M1435 1336 c-31 -14 -75 -56 -59 -56 5 0 3 -4 -5 -9 -9 -6 -11 -18
-7 -34 13 -53 180 -83 240 -43 50 32 41 92 -19 132 -23 15 -29 15 -77 -1 -29
-10 -68 -24 -87 -32 -18 -7 -35 -12 -38 -10 -6 7 62 47 95 57 20 6 22 8 7 9
-11 0 -33 -6 -50 -13z"/>
<path d="M1185 1280 c-3 -5 2 -10 12 -10 11 0 24 -5 31 -12 9 -9 18 -9 38 1
14 6 35 9 45 6 11 -4 19 -2 19 6 0 8 -13 10 -45 6 -25 -4 -47 -2 -50 3 -8 13
-42 13 -50 0z"/>
<path d="M1008 1214 c-16 -8 -28 -17 -28 -20 0 -2 12 2 28 9 15 8 34 17 42 20
13 5 13 5 0 6 -8 0 -27 -7 -42 -15z"/>
<path d="M1303 1219 c-37 -14 -29 -39 12 -39 23 0 35 5 35 14 0 22 -23 35 -47
25z"/>
<path d="M1060 1209 c-98 -27 -115 -50 -55 -75 40 -16 112 -18 149 -4 33 12
35 53 4 74 -25 18 -46 19 -98 5z"/>
<path d="M1628 1182 c-7 -10 -20 -22 -28 -27 -20 -12 -130 -23 -130 -13 0 4
-8 8 -17 8 -15 -1 -14 -4 6 -21 17 -14 27 -17 35 -9 5 5 29 10 52 10 24 0 46
5 49 10 4 6 11 8 16 5 5 -4 9 -2 9 4 0 6 9 15 19 20 15 8 20 7 25 -5 5 -12 2
-15 -9 -10 -9 3 -14 2 -11 -3 7 -11 -33 -28 -94 -41 l-45 -9 48 4 c53 5 127
39 127 58 0 7 -9 18 -20 24 -16 11 -21 10 -32 -5z"/>
<path d="M1148 1102 c-41 -13 -53 -13 -87 -2 -32 10 -46 10 -70 0 -43 -18 -39
-33 7 -25 26 4 43 1 57 -9 24 -18 61 -21 71 -5 4 7 0 9 -12 5 -11 -3 -26 -1
-34 4 -11 8 -3 10 30 11 37 0 100 3 155 9 19 2 -29 30 -49 29 -12 0 -42 -8
-68 -17z"/>
<path d="M859 1088 c-1 -7 -1 -16 0 -20 0 -5 -3 -8 -9 -8 -5 0 -10 -5 -10 -11
0 -8 5 -8 15 1 8 7 15 18 15 25 0 8 6 16 13 18 7 3 5 6 -5 6 -10 1 -19 -5 -19
-11z"/>
<path d="M1253 1064 l-28 -26 35 20 c19 11 42 22 50 25 10 4 8 6 -7 6 -12 1
-35 -11 -50 -25z"/>
<path d="M1330 1069 c-84 -35 -110 -52 -110 -76 0 -49 137 -77 193 -40 35 23
37 68 2 102 -26 27 -45 30 -85 14z"/>
<path d="M1663 1044 c-18 -8 -33 -21 -33 -29 0 -18 57 -35 85 -25 24 9 31 36
15 55 -15 18 -25 18 -67 -1z"/>
<path d="M883 1034 c-46 -23 -65 -49 -70 -94 -4 -36 -1 -41 24 -51 36 -14 140
-14 175 0 91 35 91 120 1 152 -27 9 -38 6 -90 -22 -32 -18 -68 -41 -80 -52
-13 -11 -23 -16 -23 -10 0 11 50 58 86 80 27 17 15 15 -23 -3z"/>
<path d="M1172 978 c-14 -14 -16 -52 -2 -43 13 8 13 -1 1 -24 -7 -13 -6 -18 4
-18 11 0 14 12 12 49 -1 26 -2 48 -2 48 -1 0 -6 -5 -13 -12z"/>
<path d="M1065 893 c-36 -9 -39 -22 -10 -33 38 -14 87 -4 83 18 -3 17 -37 24
-73 15z"/>
<path d="M790 880 c0 -16 28 -32 35 -20 4 6 4 14 1 18 -10 9 -36 11 -36 2z"/>
<path d="M1160 869 c0 -5 5 -7 10 -4 6 3 10 8 10 11 0 2 -4 4 -10 4 -5 0 -10
-5 -10 -11z"/>
<path d="M692 863 c-7 -2 -17 -14 -23 -26 -11 -20 -10 -20 17 3 16 14 31 26
33 28 7 4 -14 1 -27 -5z"/>
<path d="M870 862 c0 -5 7 -15 15 -22 8 -7 15 -8 15 -2 0 5 -7 15 -15 22 -8 7
-15 8 -15 2z"/>
<path d="M703 834 c-29 -14 -53 -32 -53 -40 0 -23 37 -52 75 -60 45 -8 81 7
97 41 10 22 8 30 -9 53 -26 36 -47 37 -110 6z"/>
<path d="M1045 471 c-3 -11 -10 -44 -15 -76 -10 -61 -1 -98 24 -108 57 -22 82
79 44 176 -12 31 -44 36 -53 8z m42 -69 c7 -51 -3 -92 -22 -92 -17 0 -18 18
-8 98 7 60 22 57 30 -6z"/>
<path d="M742 438 c-18 -18 -15 -113 4 -132 21 -22 31 -20 50 9 12 19 15 36
10 67 -10 62 -35 85 -64 56z m38 -68 c0 -37 -13 -60 -24 -42 -8 13 6 92 15 86
5 -3 9 -23 9 -44z"/>
<path d="M632 343 c-21 -39 -24 -103 -8 -128 48 -74 100 19 62 110 -16 38 -40
45 -54 18z m36 -86 c-2 -23 -7 -42 -13 -42 -13 0 -18 40 -10 84 6 29 8 32 16
18 6 -9 9 -36 7 -60z"/>
</g>
</svg>
